<?xml version="1.0" encoding="utf-8"?>
<!-- Generator: Adobe Illustrator 24.3.0, SVG Export Plug-In . SVG Version: 6.00 Build 0)  -->
<svg version="1.0" id="Layer_1" xmlns="http://www.w3.org/2000/svg" xmlns:xlink="http://www.w3.org/1999/xlink" x="0px" y="0px"
	 viewBox="0 0 640 480" style="enable-background:new 0 0 640 480;" xml:space="preserve">
<style type="text/css">
	.st0{fill:none;stroke:#58585B;stroke-width:4.0327;stroke-linecap:round;stroke-linejoin:round;stroke-miterlimit:10;}
	.st1{fill:#58585B;}
	.st2{clip-path:url(#SVGID_2_);fill:url(#SVGID_3_);}
</style>
<line class="st0" x1="492.61" y1="298.18" x2="148.96" y2="298.18"/>
<path class="st1" d="M217.01,372.57c3.34,0,6.35-0.5,9.1-1.5c2.76-1,5.18-2.42,7.18-4.26c2.09-1.84,3.59-4.17,4.76-6.93
	c1.09-2.67,1.67-5.68,1.67-9.1c0-3.34-0.58-6.35-1.67-9.02c-1.25-2.67-2.76-4.93-4.76-6.76c-2.09-1.84-4.34-3.26-7.01-4.26
	s-5.51-1.5-8.52-1.5h-18.7c-2.34,0-4.17,0.67-5.43,2.09c-1.25,1.42-1.84,3.17-1.84,5.09v53.52c0,1.42,0.5,2.5,1.42,3.51
	c1,1,2.17,1.59,3.51,1.59s2.5-0.58,3.42-1.59c1-1,1.5-2.17,1.5-3.51v-17.37L217.01,372.57L217.01,372.57z M201.73,362.63v-23.63
	h15.53c4.26,0,7.35,1.09,9.43,3.26c1.92,2.17,3.01,5.01,3.01,8.6c0,3.42-1,6.35-3.01,8.52c-2.09,2.25-5.34,3.34-9.77,3.34h-15.2
	V362.63z"/>
<path class="st1" d="M278.62,356.79c2.09,1.92,3.17,4.59,3.34,7.6c0,0.75,0,1.59,0.08,2.5c0,0.92,0,1.84,0,2.92c0,1,0,1.92,0,2.92
	s0,1.84-0.08,2.5c-0.25,3.26-1.5,5.84-3.51,7.85c-2.17,1.92-4.84,3.01-8.18,3.01c-3.34,0-6.01-1-8.1-3.01
	c-2.09-1.92-3.26-4.59-3.51-7.85c-0.08-0.67-0.08-1.5-0.08-2.5c-0.08-0.92-0.08-1.84-0.08-2.92c0-1,0-1.92,0.08-2.92
	c0-0.92,0-1.75,0.08-2.5c0.25-3.09,1.42-5.68,3.42-7.6c1.92-1.92,4.76-2.92,8.18-2.92C273.78,353.95,276.54,354.87,278.62,356.79z
	 M262.01,345.69c-2.5,0.92-4.76,2.25-6.6,3.84c-1.92,1.67-3.42,3.67-4.68,5.93c-1.25,2.34-1.84,4.84-2.09,7.6
	c-0.08,0.92-0.08,1.92-0.08,3.09c-0.08,1.25-0.08,2.34-0.08,3.51c0,1.25,0,2.34,0.08,3.51c0,1.25,0,2.25,0.08,3.17
	c0.17,2.67,0.83,5.18,2.09,7.51c1.25,2.34,2.67,4.34,4.68,6.01c1.84,1.75,4.09,3.09,6.6,4.01c2.59,1,5.34,1.5,8.27,1.5
	c3.01,0,5.68-0.5,8.27-1.5c2.5-0.92,4.76-2.25,6.6-4.01c1.92-1.67,3.42-3.76,4.59-6.01c1.25-2.34,1.84-4.84,2.09-7.51
	c0.08-0.92,0.08-1.92,0.17-3.17c0-1.25,0-2.34,0-3.51c0-1.25,0-2.34,0-3.51c-0.08-1.09-0.08-2.17-0.17-3.09
	c-0.17-2.76-0.83-5.34-2.09-7.6c-1.09-2.34-2.59-4.26-4.59-5.93c-1.84-1.59-4.09-2.92-6.6-3.84c-2.59-0.83-5.34-1.34-8.27-1.34
	C267.35,344.43,264.6,344.85,262.01,345.69z"/>
<path class="st1" d="M342.58,388.35c0.67,2.5,1.67,4.26,3.17,5.43c1.5,1.25,3.26,1.75,5.18,1.75c1.92,0,3.76-0.58,5.18-1.75
	c1.42-1.09,2.5-2.92,3.17-5.43l9.85-36.74c0.5-1.75,0.25-3.34-0.58-4.76c-0.92-1.34-2.34-1.92-4.09-1.92
	c-1.25,0-2.25,0.33-3.09,1.09c-0.83,0.83-1.5,1.84-1.75,3.09l-8.6,34.9c-0.08,0.25-0.17,0.33-0.5,0.33c-0.25,0-0.42-0.08-0.5-0.33
	l-8.02-32.14c-0.58-2.25-1.5-4.01-2.92-5.18c-1.42-1.25-3.09-1.75-5.01-1.75c-1.84,0-3.51,0.58-4.93,1.75
	c-1.42,1.25-2.42,3.01-3.01,5.18l-8.02,32.14c-0.08,0.25-0.17,0.33-0.5,0.33c-0.25,0-0.42-0.08-0.5-0.33l-8.6-35.07
	c-0.33-1.42-1-2.5-1.92-3.17c-0.92-0.67-1.92-0.92-3.01-0.92c-0.83,0-1.59,0.17-2.25,0.58c-0.67,0.42-1.17,0.83-1.67,1.42
	c-0.5,0.67-0.75,1.34-0.83,2.17s-0.08,1.67,0.17,2.59l9.77,36.82c0.67,2.42,1.75,4.17,3.26,5.34c1.5,1.25,3.17,1.75,5.09,1.75
	c2.09,0,3.84-0.58,5.26-1.75c1.42-1.09,2.42-3.01,3.09-5.51l8.02-30.81c0-0.25,0.17-0.33,0.5-0.33c0.25,0,0.42,0.08,0.5,0.33
	L342.58,388.35z"/>
<path class="st1" d="M386.33,366.06c-0.08-3.92,0.83-7.1,2.76-9.43c1.92-2.34,4.84-3.42,8.85-3.42c3.67,0,6.43,1,8.52,3.17
	c1.92,2.17,2.92,5.01,2.59,8.6c-0.08,0.75-0.5,1.09-1.09,1.09L386.33,366.06L386.33,366.06z M418.72,365.31c0-3.09-0.5-5.93-1.5-8.6
	c-1-2.5-2.42-4.76-4.17-6.6c-1.75-1.75-4.01-3.17-6.51-4.17c-2.5-1-5.43-1.5-8.52-1.5c-2.92,0-5.59,0.5-8.1,1.34
	c-2.5,0.92-4.76,2.25-6.6,3.92c-1.84,1.75-3.34,3.84-4.51,6.26c-1.09,2.42-1.75,5.09-2.09,8.1c-0.08,0.75-0.08,1.59-0.08,2.5
	c-0.08,1-0.08,1.92-0.08,3.01c0,1,0,2.17,0.08,3.17c0,1,0,2.09,0.08,2.92c0.17,2.92,0.83,5.59,1.92,8.02c1,2.5,2.5,4.59,4.34,6.35
	s4.09,3.17,6.68,4.17c2.5,1,5.43,1.5,8.68,1.5c1.42,0,2.76-0.08,4.26-0.25c1.42-0.08,2.84-0.33,4.17-0.67c1.34-0.25,2.5-0.58,3.76-1
	c1.09-0.33,2.09-0.83,2.92-1.34c1-0.67,1.75-1.34,2.09-2.09c0.25-0.67,0.5-1.42,0.5-2.17c0-0.67-0.17-1.34-0.5-1.92
	c-0.25-0.67-0.75-1.09-1.34-1.59c-0.67-0.42-1.34-0.67-2.17-0.75s-1.75,0.08-2.76,0.5c-1.75,0.67-3.67,1.25-5.43,1.59
	c-1.84,0.5-3.59,0.67-5.34,0.67c-3.67,0-6.6-1-8.85-3.01c-2.34-1.92-3.42-4.84-3.42-8.6v-1.09h26.38c2.09,0,3.51-0.58,4.59-1.67
	c0.92-1.09,1.42-2.5,1.42-4.26v-2.76H418.72z"/>
<path class="st1" d="M450.37,344.68c-1.59-0.17-3.17-0.25-4.76-0.25c-5.09,0-8.93,1.42-11.61,4.09c-2.67,2.76-4.01,6.51-4.01,11.27
	v30.31c0,1.42,0.5,2.59,1.5,3.51c0.92,0.92,2.09,1.42,3.34,1.42c1.42,0,2.59-0.5,3.67-1.42c0.92-0.92,1.42-2.17,1.42-3.51v-28.72
	c0-2.59,0.58-4.51,1.59-5.68c1-1.09,2.67-1.67,4.84-1.75c1.59-0.08,2.92,0.08,4.01,0.33c1.09,0.25,2.17,0.5,3.01,0.5
	c1.59,0,2.76-0.58,3.51-1.59c0.75-1,1.09-2.09,1.09-3.09c0-1.09-0.25-2.09-0.83-2.92c-0.58-0.75-1.59-1.34-3.01-1.75
	C453.04,345.18,451.87,344.85,450.37,344.68z"/>
<g>
	<g>
		<g>
			<defs>
				<path id="SVGID_1_" d="M550.56,111.49L550.56,111.49c7.51,0,13.44-6.43,13.44-13.94c0-7.51-5.93-13.44-13.44-13.44
					c-8.02,0-13.69,5.93-13.69,13.44C536.86,105.06,542.54,111.49,550.56,111.49 M267.02,219.53L267.02,219.53
					c-4.59,3.42-16.45,8.27-26.3,8.27c-17.62,0-26.97-9.1-28.55-26.72c-0.67-7.1-0.42-20.54,0-26.72
					c0.92-16.7,9.1-25.38,26.47-25.38c11.86,0,23.54,4.09,28.14,7.1v63.54h0.25V219.53z M279.37,84.94L279.37,84.94
					c-6.6,0-12.36,5.51-12.36,12.36v34.23c-7.51-3.42-18.95-6.6-29.89-6.6c-29.72,0-46.59,17.62-49.09,46.17
					c-0.67,8.27-0.67,24.46,0,32.65c2.5,28.14,21.21,47.26,52.35,47.26c22.13,0,40.66-9.85,46.59-14.19c3.67-2.5,4.34-5.01,4.34-9.1
					V97.46C291.48,90.7,286.22,84.94,279.37,84.94z M471.99,125.18L471.99,125.18c-23.96,0-40.66,7.51-47.51,12.61
					c-3.42,2.25-4.76,4.76-4.76,9.35v90c0,6.85,5.68,12.36,12.11,12.36c6.85,0,12.11-5.51,12.11-12.36V154.9
					c5.26-3.17,16.03-6.43,27.39-6.43c14.19,0,26.47,7.76,26.47,26.05v62.62c0,6.85,5.68,12.36,12.11,12.36
					c7.1,0,12.11-5.51,12.11-12.36v-63.7C522.25,142.55,505.3,125.18,471.99,125.18z M380.15,222.7L380.15,222.7
					c-2.25,1.84-10.94,7.1-26.72,7.1c-16.2,0-25.13-6.85-25.13-19.2c0-10.94,10.02-17.37,23.96-17.37c10.27,0,17.78,1.34,27.89,3.92
					V222.7z M355.94,125.18L355.94,125.18c-13.94,0-28.3,3.67-34.98,6.85c-6.18,2.76-8.02,7.35-8.02,11.19c0,7.1,6.6,12.61,16.7,9.1
					c6.43-2.25,15.53-5.01,24.88-5.01c17.78,0,25.55,6.6,25.55,22.13v7.51c-10.52-2.5-18.54-3.92-29.06-3.92
					c-32.23,0-46.59,18.03-46.59,37.91c0,22.38,15.53,39.74,47.09,39.74c23.8,0,41.33-8.43,47.76-12.77
					c3.42-2.25,4.34-4.76,4.34-8.93v-59.61C403.44,138.62,385.41,125.18,355.94,125.18z M550.56,127.27L550.56,127.27
					c-6.85,0-12.36,5.51-12.36,12.36v98.02c0,6.85,5.68,12.36,12.36,12.36c6.85,0,12.11-5.51,12.11-12.36v-98.1
					C562.91,132.7,557.4,127.27,550.56,127.27z M150.04,222.7L150.04,222.7c-2.25,1.84-10.77,7.1-26.72,7.1
					c-16.2,0-25.13-6.85-25.13-19.2c0-10.94,10.02-17.37,23.96-17.37c10.27,0,17.78,1.34,27.89,3.92V222.7z M126.08,125.18
					c-13.94,0-28.3,3.67-34.98,6.85c-6.18,2.76-8.02,7.35-8.02,11.19c0,7.1,6.6,12.61,16.7,9.1c6.43-2.25,15.53-5.01,24.88-5.01
					c18.03,0,25.55,6.6,25.55,22.13v7.51c-10.52-2.5-18.54-3.92-29.22-3.92c-31.98,0.17-46.59,18.2-46.59,38.07
					c0,22.38,15.53,39.74,47.09,39.74c23.8,0,41.33-8.43,47.76-12.77c3.42-2.25,4.34-4.76,4.34-8.93v-59.61
					C173.59,138.62,155.3,125.18,126.08,125.18z"/>
			</defs>
			<clipPath id="SVGID_2_">
				<use xlink:href="#SVGID_1_"  style="overflow:visible;"/>
			</clipPath>
			
				<linearGradient id="SVGID_3_" gradientUnits="userSpaceOnUse" x1="-70.1141" y1="724.0446" x2="-67.8718" y2="724.0446" gradientTransform="matrix(389.3387 -34.0635 9.4006 107.4466 20355.2383 -79977.0547)">
				<stop  offset="0" style="stop-color:#00B16B"/>
				<stop  offset="0.35" style="stop-color:#006DB6"/>
				<stop  offset="0.65" style="stop-color:#8E278F"/>
				<stop  offset="0.9" style="stop-color:#F04C23"/>
			</linearGradient>
			<polygon class="st2" points="78.07,293.59 578.69,249.92 560.41,41.35 60.04,85.19 			"/>
		</g>
	</g>
</g>
</svg>
