<?xml version="1.0" encoding="utf-8"?>
<!-- Generator: Adobe Illustrator 19.0.0, SVG Export Plug-In . SVG Version: 6.00 Build 0)  -->
<svg version="1.1" id="layer" xmlns="http://www.w3.org/2000/svg" xmlns:xlink="http://www.w3.org/1999/xlink" x="0px" y="0px"
	 viewBox="-153 -46 652 652" style="enable-background:new -153 -46 652 652;" xml:space="preserve">
<style type="text/css">
	.st0{fill:#2364AD;}
	.st1{fill-rule:evenodd;clip-rule:evenodd;fill:#2364AD;}
</style>
<polygon class="st0" points="-23.5,253.6 68.9,253.6 68.9,280.5 42.1,280.5 42.1,344.4 3.7,344.4 3.7,280.5 -23.5,280.5 "/>
<polygon class="st0" points="115.4,290.5 96,344.4 59.2,344.4 95.2,253.6 135.2,253.6 172.5,344.4 135.2,344.4 "/>
<polygon class="st0" points="163.5,253.6 255.9,253.6 255.9,280.5 229.5,280.5 229.5,344.4 191.1,344.4 191.1,280.5 163.5,280.5 "/>
<polygon class="st0" points="302.4,290.5 283,344.4 246.2,344.4 282.3,253.6 322.2,253.6 359.5,344.4 322.2,344.4 "/>
<path class="st0" d="M304,86.7c-3.5-6.3-8.2-12.5-13.6-18.1c-12.8-13.3-30.7-24-52-31.4c-21.3-7.8-45.4-11.4-70.2-11.4
	c-24.8,0-49.3,3.7-70.6,11.4C76.6,44.6,58.8,55.4,46,68.6c-5.4,5.5-10.1,11.8-13.6,18.1c27.5-6.3,74.5-14.4,118.3-15.5
	c4.3,0,7.4,1.1,8.9,3.7c2.3,2.6,2.3,12.6,2.3,17.4l-1.2,115.5c2.3,0,4.7,0.4,7.4,0.4c2.3,0,5,0,7.4-0.4l-1.2-115.5
	c0-4.8-0.4-14.8,2-17.4c1.9-2.6,5-3.7,8.9-3.7C229.1,72.3,276.4,80.4,304,86.7"/>
<path class="st0" d="M309.8,101.9c-40.4-8.5-67.5-10.3-93.9-11.4c-23.3-1.5-23.3,6.6-21.3,21.4c0.4,1.1,0.4,2.2,0.8,3.3
	c7.8,43.9,17.5,81.6,19,87.9c56.6-12.2,97.4-46.1,97.4-86C311.7,111.8,311,106.7,309.8,101.9"/>
<path class="st0" d="M141.4,111.8c2.3-14.8,1.9-22.9-20.9-21.4c-26.8,1.1-53.5,3-93.9,11.4c-1.2,4.8-1.9,10-1.9,15.1
	c0,17,7.4,34,21.3,48.4c12.8,12.9,30.7,23.6,51.6,31c7.8,3,15.9,5.2,24.1,7c1.6-6.3,11.6-44.7,19.4-89.3
	C141.4,113.3,141.4,112.6,141.4,111.8"/>
<polygon class="st0" points="-240.1,435.2 -147.9,435.2 -147.9,462.1 -174.6,462.1 -174.6,525.8 -213,525.8 -213,462.1 
	-240.1,462.1 "/>
<polygon class="st0" points="-101.4,472 -120.8,525.8 -157.6,525.8 -121.6,435.2 -81.7,435.2 -44.5,525.8 -81.7,525.8 "/>
<polygon class="st0" points="-53.4,435.2 38.8,435.2 38.8,462.1 12.4,462.1 12.4,525.8 -25.9,525.8 -25.9,462.1 -53.4,462.1 "/>
<polygon class="st0" points="85.2,472 65.9,525.8 29.1,525.8 65.1,435.2 105,435.2 142.2,525.8 105,525.8 "/>
<path class="st1" d="M523,473.6h11.4c7,0,11.4-0.3,13.3-0.8c1.9-0.6,3.4-1.7,4.6-3.5c1.2-1.8,1.8-4.1,1.8-7c0-2.8-0.6-5-1.8-6.7
	c-1.2-1.7-2.8-2.9-4.8-3.5c-1.4-0.4-5.6-0.6-12.5-0.6h-12V473.6z M507.6,524.2v-87.7H540c8.3,0,14.2,0.8,17.8,2.4
	c3.5,1.6,6.5,4.3,8.7,8.2c2.3,3.9,3.4,8.6,3.4,14c0,6.9-1.7,12.4-5.2,16.6c-3.5,4.2-8.4,6.8-14.9,7.9c3.3,2.2,6,4.7,8.2,7.3
	c2.2,2.7,5.1,7.4,8.8,14.3l9.2,17.1h-18.3l-11.2-19.1c-4-6.9-6.7-11.2-8.2-12.9c-1.4-1.7-3-2.9-4.6-3.6c-1.6-0.6-4.2-1-7.7-1H523
	v36.6H507.6z M436.7,524.2v-87.7h56.5v14.8H452v19.4h38.3v14.7H452v23.9h42.6v14.8H436.7z M346.9,524.2l-18.2-87.7h15.8l11.4,60.2
	l13.9-60.2h18.3l13.4,61.2l11.7-61.2h15.5l-18.5,87.7h-16.4l-15.2-65.5l-15.1,65.5H346.9z M266.1,480.3c0,10.1,2,17.6,6.1,22.7
	c4.1,5.1,9.1,7.6,15.1,7.6c6,0,11-2.5,15-7.5c4-5,5.9-12.7,5.9-23c0-10.2-1.9-17.7-5.8-22.6c-3.9-4.9-8.9-7.3-15.2-7.3
	c-6.2,0-11.4,2.5-15.3,7.4C268.1,462.4,266.1,470,266.1,480.3z M250.3,480.9c0-10.5,1.6-19,4.9-25.8c3.3-6.8,7.6-11.8,12.8-15.1
	c5.3-3.3,11.7-5,19.2-5c10.9,0,19.8,3.9,26.7,11.8c6.9,7.9,10.3,19,10.3,33.6c0,14.7-3.6,26.1-10.9,34.4c-6.4,7.3-15,11-26,11
	c-11,0-19.7-3.6-26.1-10.8C253.9,506.6,250.3,495.3,250.3,480.9z M197.7,451.3v24.9h8.5c5.7,0,9.6-0.4,11.6-1.1c2-0.7,3.7-2.1,5-4.1
	c1.3-2,2-4.4,2-7.3c0-2.9-0.7-5.4-2-7.3c-1.4-2-3-3.3-5-4c-2-0.7-6.2-1-12.6-1H197.7z M182.3,524.2v-87.7h24.7
	c9.2,0,15.2,0.4,18.1,1.3c4.5,1.3,8.2,4.2,11.2,8.7c2.9,4.4,4.4,10.1,4.4,17.1c0,6.3-1.3,11.7-3.8,15.9c-2.5,4.3-5.7,7.3-9.5,9
	c-3.8,1.7-10.3,2.6-19.6,2.6h-10.1v33.1H182.3z"/>
</svg>
